<?xml version="1.0" standalone="no"?>
<!DOCTYPE svg PUBLIC "-//W3C//DTD SVG 20010904//EN"
 "http://www.w3.org/TR/2001/REC-SVG-20010904/DTD/svg10.dtd">
<svg version="1.0" xmlns="http://www.w3.org/2000/svg"
 width="2048.000000pt" height="2048.000000pt" viewBox="0 0 2048.000000 2048.000000"
 preserveAspectRatio="xMidYMid meet">
<metadata>
Created by potrace 1.14, written by Peter Selinger 2001-2017
</metadata>
<g transform="translate(0.000000,2048.000000) scale(0.100000,-0.100000)"
fill="#000000" stroke="none">
<path d="M14577 16283 c-1 0 -81 -4 -177 -8 -217 -9 -246 -11 -340 -20 -119
-12 -121 -12 -195 -19 -38 -4 -81 -9 -95 -11 -14 -3 -45 -7 -70 -10 -76 -8
-145 -17 -150 -20 -3 -2 -30 -6 -60 -10 -30 -4 -89 -13 -130 -21 -41 -8 -93
-17 -115 -20 -22 -3 -56 -9 -75 -14 -19 -5 -52 -11 -72 -14 -21 -3 -57 -10
-80 -15 -24 -6 -56 -12 -73 -15 -16 -3 -50 -10 -75 -16 -110 -26 -307 -72
-325 -76 -16 -3 -234 -60 -307 -79 -10 -3 -26 -7 -35 -9 -44 -11 -134 -36
-202 -56 -41 -12 -81 -23 -90 -25 -9 -2 -45 -12 -81 -23 -36 -11 -105 -32
-155 -47 -163 -48 -433 -133 -645 -202 -41 -13 -82 -26 -90 -28 -8 -2 -55 -18
-105 -35 -49 -17 -97 -33 -105 -35 -8 -2 -130 -43 -270 -90 -140 -47 -262 -88
-270 -90 -8 -2 -127 -42 -265 -88 -227 -77 -366 -122 -750 -247 -71 -23 -137
-43 -145 -45 -8 -2 -53 -16 -100 -30 -47 -15 -106 -33 -132 -41 -27 -8 -72
-21 -100 -30 -29 -8 -62 -18 -73 -21 -11 -3 -58 -17 -105 -30 -245 -71 -506
-137 -840 -215 -47 -11 -94 -21 -105 -23 -11 -2 -31 -6 -45 -9 -31 -7 -216
-44 -250 -50 -14 -2 -25 -5 -25 -6 0 -1 -11 -3 -25 -4 -22 -3 -116 -19 -175
-30 -33 -6 -119 -19 -140 -21 -49 -5 -131 -16 -145 -20 -15 -4 -64 -10 -170
-20 -30 -3 -72 -8 -93 -11 -41 -6 -111 -11 -287 -22 -151 -9 -676 -9 -810 0
-152 11 -220 16 -265 22 -22 3 -78 10 -125 16 -47 5 -96 12 -110 15 -25 5 -80
13 -127 20 -43 5 -218 41 -318 65 -49 12 -99 24 -110 26 -11 2 -74 20 -140 39
-66 20 -127 37 -135 39 -175 48 -511 183 -825 331 -118 56 -234 67 -350 34
-126 -35 -249 -141 -302 -259 -45 -102 -43 142 -43 -4705 0 -4251 1 -4574 17
-4630 9 -33 21 -63 27 -67 6 -4 8 -8 3 -8 -12 0 43 -82 87 -129 34 -36 165
-131 181 -131 3 0 35 -19 72 -41 77 -47 464 -242 563 -284 36 -15 79 -33 95
-40 17 -7 46 -19 65 -28 45 -20 290 -108 311 -112 8 -2 32 -10 52 -19 20 -8
37 -13 37 -11 0 3 12 0 28 -6 34 -13 190 -60 217 -64 11 -2 56 -13 100 -25 98
-25 402 -86 470 -94 28 -3 61 -8 75 -10 28 -5 98 -14 175 -22 28 -3 64 -7 81
-9 149 -21 657 -32 894 -20 163 8 271 15 315 21 22 2 67 7 100 9 61 5 113 10
175 19 19 3 55 8 80 11 104 13 128 16 180 25 30 5 75 12 100 15 25 3 52 8 60
10 8 2 31 7 50 10 79 13 180 32 190 35 3 1 8 2 12 1 4 0 38 6 75 15 38 9 79
18 93 20 36 6 111 23 230 51 58 13 112 26 120 28 8 2 114 29 235 60 121 32
227 58 235 60 8 1 22 5 30 8 8 3 94 28 190 56 220 62 535 159 840 258 129 42
240 78 245 80 6 1 57 18 115 38 58 20 112 38 120 40 39 10 477 158 492 166 10
5 25 9 33 9 8 0 23 4 33 9 9 6 87 33 172 61 85 28 162 53 170 57 8 3 20 7 25
8 6 0 17 4 25 8 17 7 386 126 410 132 8 2 67 20 130 40 63 21 135 43 160 50
25 7 122 36 215 65 94 28 193 57 220 64 28 8 136 37 240 65 105 28 199 53 210
56 11 2 65 16 120 30 55 14 116 28 135 31 19 3 38 8 41 10 3 2 20 6 38 9 17 3
60 12 94 21 34 8 74 17 89 19 16 2 44 8 63 14 19 5 35 7 35 4 0 -3 6 0 13 6 8
6 16 8 19 5 3 -3 23 -1 44 5 22 5 57 13 79 16 22 4 49 8 60 10 11 2 43 8 70
14 28 5 75 12 104 16 30 3 57 8 60 9 7 4 99 18 216 31 28 4 57 8 65 10 8 2 53
7 100 10 47 4 88 9 91 10 3 2 45 6 93 9 49 4 92 9 97 12 5 3 9 0 9 -6 0 -6 5
-8 11 -4 7 4 37 8 68 10 31 2 97 5 146 8 116 7 460 8 550 1 39 -3 104 -7 145
-10 137 -8 215 -14 245 -19 17 -3 57 -8 90 -11 33 -3 85 -10 116 -16 31 -5 74
-11 95 -14 50 -6 65 -8 314 -60 25 -5 181 -43 240 -58 30 -8 94 -26 142 -41
48 -15 89 -26 90 -25 2 1 12 -3 24 -9 11 -6 32 -13 45 -16 21 -4 160 -53 214
-76 11 -4 76 -30 145 -58 125 -50 287 -122 325 -144 26 -15 45 -24 75 -36 14
-5 39 -15 55 -22 43 -18 191 -21 251 -5 174 45 317 192 353 363 14 69 15 9135
1 9198 -5 23 -15 54 -21 70 -7 16 -13 34 -14 39 -4 18 -60 102 -90 135 -37 40
-111 91 -240 165 -99 57 -448 239 -453 236 -1 -1 -15 5 -30 13 -15 7 -56 26
-92 41 -63 26 -114 48 -155 66 -177 78 -739 250 -890 272 -16 3 -50 10 -74 16
-23 7 -46 10 -49 7 -3 -3 -11 -1 -19 5 -7 6 -13 9 -13 6 0 -2 -30 2 -66 9 -36
8 -70 12 -75 8 -5 -3 -9 0 -9 6 0 6 -4 9 -9 6 -4 -3 -43 1 -86 8 -44 8 -94 13
-112 12 -18 -1 -33 1 -33 4 0 3 -8 6 -17 6 -25 1 -173 15 -203 19 -46 7 -578
24 -583 18z"/>
</g>
</svg>
